<?xml version="1.0" encoding="UTF-8" standalone="no"?><!-- Generator: Gravit.io --><svg xmlns="http://www.w3.org/2000/svg" xmlns:xlink="http://www.w3.org/1999/xlink" style="isolation:isolate" viewBox="0 0 200 250" width="200pt" height="250pt"><defs><clipPath id="_clipPath_9j5rTWjLgXdcE9LoUIqyGVo8lPyglSfK"><rect width="200" height="250"/></clipPath></defs><g clip-path="url(#_clipPath_9j5rTWjLgXdcE9LoUIqyGVo8lPyglSfK)"><path d=" M 150.742 43.798 C 150.742 41.024 148.638 38.772 146.043 38.772 L 57.127 38.772 C 54.536 38.772 52.432 41.024 52.432 43.798 L 52.432 138.976 C 52.432 141.75 54.536 144.002 57.127 144.002 L 146.043 144.002 C 148.638 144.002 150.742 141.75 150.742 138.976 L 150.742 43.798 Z " fill-rule="evenodd" fill="rgb(158,25,70)" fill-opacity="0.9"/><path d=" M 85.631 106.938 C 85.632 104.919 84.092 103.279 82.189 103.279 L 17.006 103.279 C 15.107 103.279 13.563 104.919 13.561 106.938 L 13.5 176.223 C 13.498 178.243 15.039 179.882 16.939 179.882 L 82.121 179.882 C 84.024 179.882 85.568 178.243 85.57 176.223 L 85.631 106.938 Z " fill-rule="evenodd" fill="rgb(213,60,93)" fill-opacity="0.9"/><g opacity="0.9"><path d=" M 188.5 8.54 C 188.502 6.521 186.961 4.882 185.058 4.882 L 119.876 4.882 C 117.976 4.882 116.432 6.521 116.43 8.54 L 116.369 77.826 C 116.368 79.845 117.908 81.484 119.808 81.484 L 184.991 81.484 C 186.893 81.484 188.437 79.845 188.439 77.826 L 188.5 8.54 Z " fill-rule="evenodd" fill="rgb(218,119,137)" fill-opacity="0.984313725490196"/></g><g style="mix-blend-mode:normal;" opacity="0.9"><text transform="matrix(1,0,0,1,92.587,102.249)" style="font-family:'Open Sans';font-weight:700;font-size:28px;font-style:normal;fill:#e3e3e3;stroke:none;">+</text></g><g style="mix-blend-mode:normal;" opacity="0.85"><text transform="matrix(0.694,0.72,-0.72,0.694,138.367,44.233)" style="font-family:'Open Sans';font-weight:700;font-size:28px;font-style:normal;fill:#bf1d3b;stroke:none;">+</text></g><g style="mix-blend-mode:normal;" opacity="0.85"><text transform="matrix(0.731,0.683,-0.683,0.731,35.574,143.377)" style="font-family:'Open Sans';font-weight:700;font-size:28px;font-style:normal;fill:#dc8091;stroke:none;">+</text></g><text transform="matrix(1,0,0,1,7.345,238.824)" style="font-family:'Microsoft JhengHei';font-weight:700;font-size:40px;font-style:normal;fill:#9d1846;stroke:none;">KSproject</text></g></svg>